<svg xmlns="http://www.w3.org/2000/svg" id="Layer_2" data-name="Layer 2" width="67.09" height="66.15" viewBox="0 0 67.09 66.15"><defs><style>      .cls-1 {        fill: none;        stroke: red;        stroke-linecap: round;        stroke-linejoin: round;        stroke-width: 2px;      }    </style></defs><g id="_&#xD1;&#xEB;&#xEE;&#xE9;_2" data-name="&#xD1;&#xEB;&#xEE;&#xE9; 2"><g><path class="cls-1" d="m38.87,24.36c2.14,2.37,5.24,3.85,8.68,3.85,6.47,0,11.71-5.24,11.71-11.71s-5.24-11.71-11.71-11.71-11.71,5.24-11.71,11.71c0,1.34.22,2.62.64,3.82l-15.52,7.89"></path><g><circle class="cls-1" cx="47.55" cy="12.56" r="3.06" transform="translate(24.3 55.9) rotate(-76.58)"></circle><path class="cls-1" d="m41.6,21.24c.91-2.4,3.23-4.1,5.95-4.1s4.9,1.6,5.87,3.89"></path></g><path class="cls-1" d="m1.57,36.5c-.37-1.08-.57-2.24-.57-3.45,0-5.83,4.73-10.56,10.56-10.56s10.56,4.73,10.56,10.56-4.73,10.56-10.56,10.56c-3.11,0-5.9-1.34-7.83-3.47"></path><g><circle class="cls-1" cx="11.56" cy="29.5" r="2.76"></circle><path class="cls-1" d="m6.23,37.25c.84-2.12,2.92-3.62,5.34-3.62s4.42,1.45,5.29,3.51"></path></g><path class="cls-1" d="m31.7,55.9c-.39-1.14-.6-2.36-.6-3.63,0-6.14,4.98-11.12,11.12-11.12s11.12,4.98,11.12,11.12-4.98,11.12-11.12,11.12c-3.27,0-6.21-1.41-8.24-3.66"></path><g><circle class="cls-1" cx="42.21" cy="48.53" r="2.9" transform="translate(-14.78 78.33) rotate(-76.59)"></circle><path class="cls-1" d="m36.41,57.24c.73-2.52,3.05-4.36,5.8-4.36s5.08,1.84,5.8,4.36"></path></g><line class="cls-1" x1="10.99" y1="22.34" x2="10.99" y2="11.82"></line><circle class="cls-1" cx="10.99" cy="6.42" r="5.42"></circle><line class="cls-1" x1="31.4" y1="56.01" x2="21.18" y2="58.47"></line><circle class="cls-1" cx="15.92" cy="59.74" r="5.42"></circle><line class="cls-1" x1="51.16" y1="45.53" x2="57.82" y2="38.88"></line><circle class="cls-1" cx="61.25" cy="35.47" r="4.84"></circle><line class="cls-1" x1="45.11" y1="27.96" x2="43.66" y2="41.16"></line><line class="cls-1" x1="31.32" y1="50.06" x2="18.35" y2="41.16"></line></g></g></svg>