<svg xmlns="http://www.w3.org/2000/svg" id="Layer_2" data-name="Layer 2" width="52.94" height="64.66" viewBox="0 0 52.94 64.66"><defs><style>      .cls-1 {        fill: none;        stroke: red;        stroke-linecap: round;        stroke-linejoin: round;        stroke-width: 2px;      }    </style></defs><g id="_&#xD1;&#xEB;&#xEE;&#xE9;_2" data-name="&#xD1;&#xEB;&#xEE;&#xE9; 2"><g><g><g><path class="cls-1" d="m1,63.66v-12.7c0-5.53,4.28-10.11,9.8-10.48l1.46-.1,1.01-.07c.99-.06,1.96-.28,2.89-.62.73-.27,1.43-.63,2.09-1.07h0c1.47-.98,2.35-2.63,2.35-4.39v-1"></path><path class="cls-1" d="m32.34,33.75v.49c0,1.76.88,3.41,2.35,4.39.68.46,1.42.83,2.18,1.1.07.02.13.05.2.07.84.29,1.71.46,2.6.52l2.47.16c5.51.37,9.8,4.95,9.8,10.48v12.7"></path></g><path class="cls-1" d="m36.26,39.48c-1.77,2.67-5.32,4.49-9.41,4.49s-7.88-1.95-9.58-4.77"></path><g><path class="cls-1" d="m16.24,26.69c2.05,5.31,6.03,8.92,10.61,8.92s8.56-3.61,10.61-8.92"></path><path class="cls-1" d="m16.24,26.69c-1.19.36-2.61-.84-3.16-2.68-.55-1.84-.03-3.62,1.16-3.98l1.87-.73.18-1.67c.3-2.82,1.88-5.35,4.27-6.87,4.48,2.1,9.54,2.59,14.34,1.4h.05c-.47,2.6.47,5.26,2.48,6.99l.17.15,1.86.74c1.19.36,1.72,2.14,1.16,3.98-.55,1.84-1.97,3.03-3.16,2.68"></path><path class="cls-1" d="m12.72,21.97c-.51-1.71-1.2-4.9-.38-8.64.13-.6,2.32-9.96,10.37-11.96,4.3-1.07,9.24.22,12.29,3.46.87.92,1.43,1.84,1.79,2.53.06.03.18.1.34.21,2.59,1.81,4.03,4.92,3.83,8.15-.1,1.69-.4,4.33-.4,5.38"></path></g></g><g><line class="cls-1" x1="10.07" y1="54.54" x2="10.07" y2="63.66"></line><line class="cls-1" x1="42.87" y1="54.54" x2="42.87" y2="63.66"></line></g></g></g></svg>