<svg xmlns="http://www.w3.org/2000/svg" id="Layer_2" data-name="Layer 2" width="67.96" height="67.57" viewBox="0 0 67.96 67.57"><defs><style>      .cls-1 {        fill: none;        stroke: red;        stroke-linecap: round;        stroke-linejoin: round;        stroke-width: 2px;      }    </style></defs><g id="_&#xD1;&#xEB;&#xEE;&#xE9;_2" data-name="&#xD1;&#xEB;&#xEE;&#xE9; 2"><g><g><rect class="cls-1" x="5.71" y="42.16" width="13.44" height="14.53"></rect><polyline class="cls-1" points="1 56.69 3.24 36.21 7.31 36.21 7.73 39.31"></polyline><polyline class="cls-1" points="9.39 56.69 9.39 48.45 15.47 48.45 15.47 56.69"></polyline><g><polyline class="cls-1" points="22.1 43.3 27.22 42.07 27.22 56.69 22.1 56.69"></polyline><line class="cls-1" x1="23.81" y1="46.11" x2="23.81" y2="47.6"></line><line class="cls-1" x1="23.81" y1="51.83" x2="23.81" y2="53.32"></line></g></g><g><polyline class="cls-1" points="37.99 12.25 37.99 1 20.63 1 20.63 11.89"></polyline><line class="cls-1" x1="29.92" y1="15.07" x2="36.57" y2="15.11"></line><path class="cls-1" d="m38.02,3.83h5.67c.49,0,.93.29,1.11.75l2,4.91v3.43"></path><circle class="cls-1" cx="42.4" cy="15.12" r="2.2" transform="translate(18.32 53.15) rotate(-77.3)"></circle><circle class="cls-1" cx="24.79" cy="15.12" r="2.2" transform="translate(4.36 35.75) rotate(-76.67)"></circle><line class="cls-1" x1="46.8" y1="9.49" x2="38.02" y2="9.49"></line></g><g><ellipse class="cls-1" cx="57.64" cy="41.22" rx="4.72" ry="5.37"></ellipse><path class="cls-1" d="m48.32,56.43c0-3.21,1.62-6.04,4.1-7.72.67-.45,1.55-.47,2.24-.05.87.52,1.89.83,2.99.83s2.11-.3,2.99-.83c.69-.42,1.57-.41,2.24.05,2.47,1.68,4.1,4.51,4.1,7.72"></path></g><g><path class="cls-1" d="m7.29,31.26c.99-6.02,3.95-11.39,8.18-15.41v5.1"></path><line class="cls-1" x1="15.47" y1="15.85" x2="10.09" y2="16.09"></line></g><g><path class="cls-1" d="m51.75,14.55c4.72,3.87,7.89,9.11,9.25,14.79l-4.42-2.55"></path><line class="cls-1" x1="61" y1="29.34" x2="63.49" y2="24.56"></line></g><g><path class="cls-1" d="m43.99,61.41c-5.71,2.15-11.83,2.28-17.44.62l4.42-2.55"></path><line class="cls-1" x1="26.55" y1="62.03" x2="29.45" y2="66.57"></line></g></g></g></svg>