<svg xmlns="http://www.w3.org/2000/svg" id="Layer_2" data-name="Layer 2" width="67.56" height="48.98" viewBox="0 0 67.56 48.98"><defs><style>      .cls-1 {        fill: none;        stroke: red;        stroke-linecap: round;        stroke-linejoin: round;        stroke-width: 2px;      }    </style></defs><g id="_&#xD1;&#xEB;&#xEE;&#xE9;_2" data-name="&#xD1;&#xEB;&#xEE;&#xE9; 2"><g><g><path class="cls-1" d="m29.08,2.07c-1.43.58-3.22,1.65-4.56,2.11-1.17.41-2.54,1.04-2.77,2.41-.13.77.16,1.58.01,2.35-.35,1.91-2.89,2.23-3.52,4.04-.36,1.02.05,2.22.74,2.99.68.77,1.6,1.21,2.49,1.62.27.13.53.25.78.37"></path><path class="cls-1" d="m1.08,24.2c1.89-.4,3.61.25,5.73.69,1.15.24,2.3.48,3.45.71,1.97.41,4.21,1.01,5.1,2.82,1.32,2.68-1.25,5.86-.57,8.77.21.9.72,1.69,1.11,2.52.39.83.68,1.79.41,2.66-.07.24-.18.36-.32.43"></path><path class="cls-1" d="m22.39,43.78c-11.81,0-21.39-9.58-21.39-21.39S10.58,1,22.39,1c8.88,0,16.5,5.41,19.73,13.12"></path><path class="cls-1" d="m14.69,2.89c.77.99.54,2.43.2,3.64-.42,1.5-1.02,3.19-2.79,3.91-.47.19-.98.29-1.5.4-.61.13-1.21.25-1.72.53-1.2.64-1.54,1.86-2.14,2.9-.99,1.73-2.97,3.11-5.31,3.7"></path></g><g><line class="cls-1" x1="29.7" y1="29.71" x2="39.24" y2="29.71"></line><g><line class="cls-1" x1="28.5" y1="23.55" x2="34.82" y2="23.55"></line><line class="cls-1" x1="23.64" y1="23.55" x2="25.25" y2="23.55"></line></g><g><line class="cls-1" x1="22.58" y1="35.88" x2="24.19" y2="35.88"></line><line class="cls-1" x1="27.07" y1="35.88" x2="36.61" y2="35.88"></line></g><g><polyline class="cls-1" points="37.77 43.97 51.39 43.97 53.28 43.97"></polyline><line class="cls-1" x1="59.92" y1="28.71" x2="55.04" y2="28.71"></line><path class="cls-1" d="m51.39,25.78h6.33c.7,0,1.33.4,1.63,1.04,1.12,2.4,3.79,8.13,3.83,8.11l3.17,1.72c.14.08.22.22.22.38v6.55"></path><polyline class="cls-1" points="63.17 34.93 54.95 34.93 54.9 28.71"></polyline><circle class="cls-1" cx="59.92" cy="43.97" r="4.01"></circle><circle class="cls-1" cx="30.73" cy="43.97" r="4.01"></circle><path class="cls-1" d="m51.39,43.97v-22.68c0-.79-.64-1.44-1.44-1.44h-13.07"></path></g></g></g></g></svg>