<svg xmlns="http://www.w3.org/2000/svg" id="Layer_2" data-name="Layer 2" width="67.98" height="56.89" viewBox="0 0 67.98 56.89"><defs><style>      .cls-1 {        fill: none;        stroke: red;        stroke-linecap: round;        stroke-linejoin: round;        stroke-width: 2px;      }    </style></defs><g id="_&#xD1;&#xEB;&#xEE;&#xE9;_2" data-name="&#xD1;&#xEB;&#xEE;&#xE9; 2"><g><polyline class="cls-1" points="11.12 32.81 11.12 55.89 48.11 55.89 48.11 52.02"></polyline><polyline class="cls-1" points="48.11 24.11 48.11 6.21 29.62 6.21"></polyline><line class="cls-1" x1="24.25" y1="28.7" x2="36.67" y2="28.7"></line><line class="cls-1" x1="18.96" y1="35.41" x2="38.88" y2="35.41"></line><line class="cls-1" x1="18.96" y1="42.13" x2="33.72" y2="42.13"></line><path class="cls-1" d="m29.59,51.74c-.06-.63.48-1.21,1.1-1.37s1.27,0,1.87.21c.6.22,1.18.5,1.81.59,1.37.2,2.82-.63,3.35-1.91"></path><g><path class="cls-1" d="m41.29,47.17l-1.56,1.26.49-1.63c1.15-3.84,2.89-7.49,5.15-10.8l15.88-23.28c.4-.58,1.19-.73,1.77-.33l1.68,1.14c.58.4.73,1.19.33,1.77l-16.07,23.56c-2.14,3.13-4.72,5.93-7.66,8.32Z"></path><path class="cls-1" d="m59.17,15.77l7.34,4.72c.5.34.62,1.01.28,1.51l-5.59,8.19"></path></g><g><path class="cls-1" d="m1,12.2v3.64l3.07.46c.26,1.13.7,2.19,1.3,3.15l-1.85,2.5,2.57,2.57,2.5-1.85c.95.6,2.02,1.05,3.15,1.3l.46,3.07h3.64l.46-3.07c1.13-.26,2.19-.7,3.15-1.3l2.5,1.85,2.57-2.57-1.85-2.5c.6-.95,1.05-2.02,1.3-3.15l3.07-.46v-3.64l-3.07-.46c-.26-1.13-.7-2.19-1.3-3.15l1.85-2.5-2.57-2.57-2.5,1.85c-.95-.6-2.02-1.05-3.15-1.3l-.46-3.07h-3.64l-.46,3.07c-1.13.26-2.19.7-3.15,1.3l-2.5-1.85-2.57,2.57,1.85,2.5c-.6.95-1.05,2.02-1.3,3.15l-3.07.46Z"></path><circle class="cls-1" cx="14.02" cy="14.02" r="6.24"></circle></g><line class="cls-1" x1="35.72" y1="13.29" x2="42.63" y2="13.29"></line><line class="cls-1" x1="35.72" y1="19.33" x2="42.63" y2="19.33"></line></g></g></svg>